<?xml version="1.0" encoding="UTF-8"?>
<svg version="1.1" xmlns="http://www.w3.org/2000/svg" width="500" height="500">
<path d="M0 0 C0.92108551 0.00054382 1.84217102 0.00108765 2.79116821 0.00164795 C55.901806 0.14526629 108.88763407 17.99081404 149.75 52.375 C150.91921328 53.33991349 152.08848532 54.30475579 153.2578125 55.26953125 C165.69928348 65.63571568 176.76848371 76.73395983 186.48876953 89.69921875 C187.6942895 91.30097816 188.92280936 92.88534961 190.15234375 94.46875 C220.50746157 133.90445862 235.95946427 183.05394788 236 232.5625 C236.00067474 233.30866577 236.00134949 234.05483154 236.00204468 234.8236084 C235.93292517 283.26927984 220.68917538 331.34787263 191.75 370.375 C191.30011719 370.98182617 190.85023438 371.58865234 190.38671875 372.21386719 C183.71959619 381.11457187 176.4441398 389.35379793 168.75 397.375 C167.96753906 398.19871094 167.18507813 399.02242188 166.37890625 399.87109375 C160.87751491 405.52938752 154.96657051 410.52096549 148.75 415.375 C148.15268066 415.84341309 147.55536133 416.31182617 146.93994141 416.79443359 C137.60419586 424.07930598 128.0747178 430.58064959 117.75 436.375 C117.11046387 436.74189941 116.47092773 437.10879883 115.81201172 437.48681641 C91.38513986 451.43898114 64.42146881 459.88149129 36.75 464.375 C35.75709961 464.55232666 34.76419922 464.72965332 33.74121094 464.91235352 C23.09053186 466.66417193 12.52313234 466.81399859 1.75 466.8125 C0.78522736 466.81389984 -0.17954529 466.81529968 -1.17355347 466.81674194 C-18.34139629 466.79635321 -34.47220932 465.19806077 -51.25 461.375 C-52.15347168 461.17745117 -53.05694336 460.97990234 -53.98779297 460.77636719 C-88.40076018 453.11433757 -121.29029322 437.06060693 -148.25 414.375 C-149.41921328 413.41008651 -150.58848532 412.44524421 -151.7578125 411.48046875 C-196.71832587 374.01131734 -226.37600135 319.57065097 -233.25 261.375 C-233.3442627 260.58254883 -233.43852539 259.79009766 -233.53564453 258.97363281 C-234.42166549 250.53820608 -234.4933002 242.09752704 -234.5 233.625 C-234.50067474 232.85354645 -234.50134949 232.0820929 -234.50204468 231.28726196 C-234.48384753 218.12324455 -233.70429956 205.33609613 -231.25 192.375 C-231.07839355 191.46540527 -230.90678711 190.55581055 -230.72998047 189.61865234 C-224.17550561 156.09652578 -210.62637205 123.85440315 -190.25 96.375 C-189.57517578 95.46476074 -189.57517578 95.46476074 -188.88671875 94.53613281 C-182.21959619 85.63542813 -174.9441398 77.39620207 -167.25 69.375 C-166.46753906 68.55128906 -165.68507813 67.72757812 -164.87890625 66.87890625 C-159.37762455 61.22072525 -153.44048991 56.25961887 -147.25 51.375 C-146.27417969 50.58222656 -145.29835938 49.78945312 -144.29296875 48.97265625 C-112.98766305 24.04654492 -74.6475445 8.45977839 -35.25 2.375 C-34.17782227 2.19839844 -33.10564453 2.02179687 -32.00097656 1.83984375 C-21.31887503 0.22178131 -10.78690607 -0.0240397 0 0 Z " fill="#000001" transform="translate(249.25,16.625)"/>
<path d="M0 0 C0.92108551 0.00054382 1.84217102 0.00108765 2.79116821 0.00164795 C55.901806 0.14526629 108.88763407 17.99081404 149.75 52.375 C150.91921328 53.33991349 152.08848532 54.30475579 153.2578125 55.26953125 C165.69928348 65.63571568 176.76848371 76.73395983 186.48876953 89.69921875 C187.6942895 91.30097816 188.92280936 92.88534961 190.15234375 94.46875 C220.50746157 133.90445862 235.95946427 183.05394788 236 232.5625 C236.00067474 233.30866577 236.00134949 234.05483154 236.00204468 234.8236084 C235.93292517 283.26927984 220.68917538 331.34787263 191.75 370.375 C191.30011719 370.98182617 190.85023438 371.58865234 190.38671875 372.21386719 C183.71959619 381.11457187 176.4441398 389.35379793 168.75 397.375 C167.96753906 398.19871094 167.18507813 399.02242188 166.37890625 399.87109375 C160.87751491 405.52938752 154.96657051 410.52096549 148.75 415.375 C148.15268066 415.84341309 147.55536133 416.31182617 146.93994141 416.79443359 C137.60419586 424.07930598 128.0747178 430.58064959 117.75 436.375 C117.11046387 436.74189941 116.47092773 437.10879883 115.81201172 437.48681641 C91.38513986 451.43898114 64.42146881 459.88149129 36.75 464.375 C35.75709961 464.55232666 34.76419922 464.72965332 33.74121094 464.91235352 C23.09053186 466.66417193 12.52313234 466.81399859 1.75 466.8125 C0.78522736 466.81389984 -0.17954529 466.81529968 -1.17355347 466.81674194 C-18.34139629 466.79635321 -34.47220932 465.19806077 -51.25 461.375 C-52.15347168 461.17745117 -53.05694336 460.97990234 -53.98779297 460.77636719 C-88.40076018 453.11433757 -121.29029322 437.06060693 -148.25 414.375 C-149.41921328 413.41008651 -150.58848532 412.44524421 -151.7578125 411.48046875 C-196.71832587 374.01131734 -226.37600135 319.57065097 -233.25 261.375 C-233.3442627 260.58254883 -233.43852539 259.79009766 -233.53564453 258.97363281 C-234.42166549 250.53820608 -234.4933002 242.09752704 -234.5 233.625 C-234.50067474 232.85354645 -234.50134949 232.0820929 -234.50204468 231.28726196 C-234.48384753 218.12324455 -233.70429956 205.33609613 -231.25 192.375 C-231.07839355 191.46540527 -230.90678711 190.55581055 -230.72998047 189.61865234 C-224.17550561 156.09652578 -210.62637205 123.85440315 -190.25 96.375 C-189.57517578 95.46476074 -189.57517578 95.46476074 -188.88671875 94.53613281 C-182.21959619 85.63542813 -174.9441398 77.39620207 -167.25 69.375 C-166.46753906 68.55128906 -165.68507813 67.72757812 -164.87890625 66.87890625 C-159.37762455 61.22072525 -153.44048991 56.25961887 -147.25 51.375 C-146.27417969 50.58222656 -145.29835938 49.78945312 -144.29296875 48.97265625 C-112.98766305 24.04654492 -74.6475445 8.45977839 -35.25 2.375 C-34.17782227 2.19839844 -33.10564453 2.02179687 -32.00097656 1.83984375 C-21.31887503 0.22178131 -10.78690607 -0.0240397 0 0 Z M-77.25 57.375 C-78.30751465 57.57931641 -79.3650293 57.78363281 -80.45458984 57.99414062 C-104.58421153 62.75283891 -128.09866193 70.8555421 -151 79.75 C-151.74813965 80.03472168 -152.4962793 80.31944336 -153.26708984 80.61279297 C-161.43117696 83.92224905 -167.39085465 88.11694618 -171.22828484 96.20837212 C-173.35991329 102.81498258 -172.93309315 109.76633783 -172.88110352 116.63696289 C-172.88624979 118.37125885 -172.89353638 120.10554956 -172.90278625 121.83982849 C-172.92123911 126.53104644 -172.908392 131.22169295 -172.88869596 135.91288686 C-172.87221819 140.8526106 -172.8811368 145.79230067 -172.88621521 150.73204041 C-172.89073236 159.04158546 -172.87490546 167.35090522 -172.84692383 175.66040039 C-172.81503207 185.2032642 -172.81482725 194.74571824 -172.8321386 204.28861052 C-172.84814442 213.52568906 -172.84117062 222.76262057 -172.82420158 231.99969292 C-172.81741202 235.90054791 -172.8182792 239.80128214 -172.82574654 243.70213509 C-172.89569486 290.17771633 -166.05712344 330.28107948 -133.25 365.375 C-132.69795898 365.96555176 -132.14591797 366.55610352 -131.57714844 367.16455078 C-108.8898172 391.15403895 -80.41335729 407.60937383 -50.98046875 422.0390625 C-47.63654856 423.68027827 -44.30984565 425.35363565 -40.98843384 427.03993225 C-38.34752174 428.38039489 -35.70406512 429.71580275 -33.06054688 431.05111694 C-31.7513964 431.71379039 -30.44325034 432.37845271 -29.13623047 433.0453186 C-8.86925119 443.62499232 -8.86925119 443.62499232 13.16992188 441.62573242 C18.92227074 439.61609772 24.30486566 436.96856927 29.75 434.25 C32.12986286 433.08002618 34.51007487 431.91076231 36.890625 430.7421875 C38.05400391 430.16823242 39.21738281 429.59427734 40.41601562 429.00292969 C43.38302071 427.55418995 46.36249518 426.14340828 49.359375 424.7578125 C73.5610209 413.56670646 97.0445502 400.26793814 117.75 383.375 C118.3181543 382.91512695 118.88630859 382.45525391 119.47167969 381.98144531 C144.15463133 361.8729403 163.76150515 335.44906443 171.5 304.1875 C171.79825684 303.00571167 171.79825684 303.00571167 172.10253906 301.80004883 C175.50968933 287.03037384 176.05164105 271.79075716 176.04052734 256.6953125 C176.04653512 255.02564705 176.05334566 253.35598432 176.06088257 251.68632507 C176.07830161 247.21783052 176.083227 242.74941284 176.08451414 238.2808876 C176.08594786 235.47976153 176.09023973 232.6786543 176.09550858 229.87753296 C176.11391474 220.08061505 176.12218933 210.28375104 176.12060547 200.48681641 C176.11940013 191.38942409 176.1406033 182.29226747 176.1720928 173.19493484 C176.19828983 165.34390281 176.20897163 157.49294778 176.20769465 149.64187241 C176.2071869 144.96976106 176.21276886 140.29786077 176.23405075 135.62579346 C176.25349647 131.23914914 176.25351471 126.85291643 176.23901749 122.4662571 C176.23693755 120.86474819 176.24158126 119.263213 176.2537384 117.66174889 C176.32723243 107.30420066 176.12069147 95.6580394 168.421875 87.6875 C139.09221193 64.66234395 83.44725407 57.43751967 47.75 52.375 C46.1729126 52.14852783 46.1729126 52.14852783 44.56396484 51.91748047 C3.80422641 46.27719423 -37.01493868 49.40994698 -77.25 57.375 Z " fill="#000000" transform="translate(249.25,16.625)"/>
<path d="M0 0 C-0.03480469 1.1859375 -0.06960937 2.371875 -0.10546875 3.59375 C-0.6427774 29.83732289 6.40685603 50.08098493 24.60961914 69.25463867 C31.24685847 76.28224111 37.34458632 83.97004244 41 93 C41.35578125 93.83015625 41.7115625 94.6603125 42.078125 95.515625 C47.20361446 114.88823771 41.5396604 135.12660474 32 152 C30.01281424 155.29019538 27.98474113 158.55013248 25.93359375 161.80078125 C22.96714342 166.70890816 20.46191858 171.82437571 18 177 C17.34 177 16.68 177 16 177 C15.957279 178.66611905 15.95936168 180.33382885 16 182 C18.31812384 184.31812384 23.95564046 183.46077728 27.09375 183.62109375 C28.0528125 183.74613281 29.011875 183.87117187 30 184 C31.38308781 186.76617563 31.11210196 189.01018 31.09765625 192.1015625 C31.09443359 193.31328125 31.09121094 194.525 31.08789062 195.7734375 C31.07951172 197.04445313 31.07113281 198.31546875 31.0625 199.625 C31.05798828 200.90375 31.05347656 202.1825 31.04882812 203.5 C31.03701203 206.66671292 31.02053815 209.83333356 31 213 C29.6847937 212.99129883 29.6847937 212.99129883 28.34301758 212.98242188 C27.18439209 212.97791016 26.0257666 212.97339844 24.83203125 212.96875 C23.68710205 212.96294922 22.54217285 212.95714844 21.36254883 212.95117188 C17.17453404 213.01198673 13.14780444 213.43758584 9 214 C9 219.28 9 224.56 9 230 C15.27 230.33 21.54 230.66 28 231 C30.25390508 237.76171525 30.25390508 237.76171525 30.265625 242.00390625 C30.26820313 242.90947266 30.27078125 243.81503906 30.2734375 244.74804688 C30.26570312 245.67681641 30.25796875 246.60558594 30.25 247.5625 C30.25773438 248.49513672 30.26546875 249.42777344 30.2734375 250.38867188 C30.27085937 251.29294922 30.26828125 252.19722656 30.265625 253.12890625 C30.26336914 253.94431885 30.26111328 254.75973145 30.25878906 255.59985352 C29.96340208 258.33942847 29.12195024 260.49510961 28 263 C23.83406801 263.20478598 19.66944207 263.32813027 15.5 263.4375 C13.74042969 263.52547852 13.74042969 263.52547852 11.9453125 263.61523438 C6.16061086 263.72897851 2.02289246 263.73668024 -2.51953125 259.89453125 C-3.72322419 258.63661648 -4.88687036 257.33871904 -6 256 C-6.4832373 255.43531006 -6.96647461 254.87062012 -7.46435547 254.28881836 C-8.78338686 252.65251169 -9.99566476 250.98075847 -11.1875 249.25 C-11.61039307 248.64365723 -12.03328613 248.03731445 -12.46899414 247.41259766 C-24.41313115 229.87547964 -25.85268903 211.15360373 -22.8359375 190.6484375 C-21.65022215 185.47339947 -19.69491393 180.91245483 -17.4375 176.12109375 C-15.96205488 173.09708167 -15.96205488 173.09708167 -15.12109375 170.16015625 C-13.58156924 165.82052095 -11.34332757 161.98897982 -9.0625 158 C-3.48659079 148.92651719 -3.48659079 148.92651719 0 139 C-5.05514227 140.47246259 -7.79518851 143.48345615 -11.3125 147.1875 C-12.45899821 148.36647231 -13.60742951 149.54356795 -14.7578125 150.71875 C-15.31114258 151.28464844 -15.86447266 151.85054687 -16.43457031 152.43359375 C-19.00712069 155.00774896 -21.73473315 157.38162654 -24.51171875 159.73046875 C-27.19359264 162.00626854 -27.19359264 162.00626854 -28.6875 165.125 C-31.11947709 170.45218791 -35.60089192 174.49851815 -39.5625 178.75 C-50.30519338 191.90359487 -52.23522855 208.66627443 -51 225 C-49.64615278 236.07471422 -45.0860416 246.07559873 -38.77734375 255.22265625 C-37 258 -37 258 -37 261 C-42.31105547 259.84122426 -46.9310951 258.27286983 -51.82421875 255.90234375 C-54.00003333 254.91350697 -54.00003333 254.91350697 -56.4609375 254.53125 C-73.9609835 250.86970191 -93.04262571 231.9731029 -102.88891602 217.77246094 C-115.08269317 199.00620843 -121.51506981 177.1572147 -116.97021484 154.85375977 C-113.62054194 140.75765441 -106.74322028 128.65321509 -97 118 C-96.07678005 116.98050757 -95.1536046 115.96097483 -94.23046875 114.94140625 C-90.83745356 111.2154805 -87.42971861 107.50352818 -83.95703125 103.8515625 C-72.99496393 91.99413869 -69.74202878 78.5552923 -68 63 C-64 63 -64 63 -62.4375 64.36328125 C-54.98537169 74.46820524 -52.53064147 84.46494137 -54 97 C-56.09134477 105.36537906 -60.2478952 112.31171651 -64.86328125 119.51171875 C-67.32057181 123.42492833 -69.4262936 127.49854314 -71.5 131.625 C-71.8503833 132.31247314 -72.2007666 132.99994629 -72.56176758 133.70825195 C-74.02256971 136.65523907 -75 138.66684071 -75 142 C-74.56171875 141.57589844 -74.1234375 141.15179688 -73.671875 140.71484375 C-69.7173736 137.05773371 -65.75854545 134.15167227 -61.0625 131.5 C-51.58528591 126.14591184 -41.6720892 119.73927198 -38 109 C-37.04885522 99.91548651 -38.733277 91.68176325 -41 82.9375 C-45.69245353 63.22185686 -46.46341893 46.06817122 -35.75 28.1875 C-28.29720008 17.3382837 -14.44216115 0 0 0 Z " fill="#1970A1" transform="translate(253,114)"/>
<path d="M0 0 C0.68660706 0.22570679 1.37321411 0.45141357 2.08062744 0.68395996 C33.06624995 10.92271981 33.06624995 10.92271981 38.015625 19.67578125 C40.80140223 25.66912593 41.87435245 30.6167841 41.89044189 37.24884033 C41.89489858 38.27599769 41.89489858 38.27599769 41.8994453 39.32390571 C41.90811626 41.61861881 41.9096393 43.91327963 41.91113281 46.20800781 C41.91576283 47.85436616 41.92078774 49.50072343 41.92617798 51.14707947 C41.93930301 55.62558356 41.94574939 60.10407264 41.95018864 64.58259296 C41.95312463 67.39026654 41.95723085 70.19793607 41.96169281 73.0056076 C41.97537994 81.81665472 41.98503558 90.62769254 41.9888947 99.43874955 C41.99335168 109.55665926 42.01078361 119.67443226 42.0398953 129.79230046 C42.06167866 137.64067705 42.07160808 145.48901571 42.07293582 153.33742213 C42.07397382 158.00958055 42.07966085 162.68161073 42.09775543 167.35373688 C42.28519243 218.6944559 34.42896802 261.15089647 -2.64941406 298.85986328 C-30.52860088 326.33931801 -67.03133524 344.11967874 -102.125 360.5 C-103.27145996 361.03641113 -104.41791992 361.57282227 -105.59912109 362.12548828 C-130.39174471 373.54950471 -130.39174471 373.54950471 -140.73828125 370.36328125 C-142.01955076 369.84127003 -143.29399067 369.30229644 -144.5625 368.75 C-145.27398193 368.44892334 -145.98546387 368.14784668 -146.71850586 367.83764648 C-157.12294571 363.32654669 -167.19555468 358.0768671 -177.29785156 352.93554688 C-180.45483163 351.33355963 -183.62303168 349.75596838 -186.79663086 348.18725586 C-189.30584881 346.94350018 -191.80547887 345.68119165 -194.30419922 344.41650391 C-195.65705708 343.73583138 -197.01310597 343.06147931 -198.37158203 342.39208984 C-208.59819701 337.34271272 -218.24615504 331.68734312 -227.75 325.375 C-228.72839844 324.72660156 -229.70679688 324.07820313 -230.71484375 323.41015625 C-264.56072264 300.54007797 -294.56572666 267.61008899 -303.32481384 226.6391449 C-307.07952185 207.13778802 -306.85809476 187.66298527 -306.82023358 167.88473058 C-306.8150558 163.94515102 -306.82246843 160.00563231 -306.82970566 156.06605905 C-306.84656851 146.77616073 -306.84326841 137.4864273 -306.82641602 128.1965332 C-306.80941192 118.6444966 -306.82547326 109.09291428 -306.8576389 99.54092699 C-306.88436068 91.28977005 -306.89160664 83.03875434 -306.88312382 74.7875585 C-306.878214 69.88024757 -306.88030806 64.9732112 -306.90091133 60.06593513 C-306.9193161 55.46489364 -306.91325165 50.86450871 -306.88871193 46.26350212 C-306.88372398 44.58256224 -306.88714111 42.90157176 -306.89986038 41.22067261 C-306.96289407 32.1718552 -306.9179077 24.01618343 -301.25 16.4375 C-295.84274964 11.06697899 -289.20754968 8.39405228 -282.1875 5.6875 C-281.11040771 5.26629883 -280.03331543 4.84509766 -278.92358398 4.41113281 C-256.87934797 -4.05209718 -234.42787347 -10.96688716 -211.25 -15.5625 C-210.11949219 -15.78776367 -208.98898438 -16.01302734 -207.82421875 -16.24511719 C-136.83853721 -30.08298225 -68.33166229 -22.56772645 0 0 Z M-190.99951172 -1.05322266 C-195.07283298 -0.16502828 -199.19226479 0.4359941 -203.3125 1.0625 C-204.6109082 1.26359375 -204.6109082 1.26359375 -205.93554688 1.46875 C-208.03995974 1.79429453 -210.14492305 2.11627768 -212.25 2.4375 C-212.25 3.0975 -212.25 3.7575 -212.25 4.4375 C-213.54744141 4.53224609 -213.54744141 4.53224609 -214.87109375 4.62890625 C-223.93410091 5.51016078 -232.47610835 7.36818336 -241.25 9.8125 C-242.8421936 10.25057983 -242.8421936 10.25057983 -244.46655273 10.69750977 C-249.76844268 12.21896529 -254.63567362 13.92673554 -259.50195312 16.52685547 C-262.07947953 17.86961713 -264.76983609 18.82544074 -267.5 19.8125 C-278.09004135 23.40229096 -278.09004135 23.40229096 -287.25 29.4375 C-287.35592619 31.72577169 -287.38970087 34.0173803 -287.39717102 36.30809021 C-287.40084771 37.03536743 -287.4045244 37.76264464 -287.4083125 38.51196057 C-287.41939389 40.96818577 -287.42320091 43.42436872 -287.42700195 45.88061523 C-287.433264 47.63478735 -287.43991057 49.38895813 -287.44691467 51.14312744 C-287.46801466 56.92744005 -287.47833283 62.71175307 -287.48828125 68.49609375 C-287.49232869 70.48953833 -287.49644561 72.48298278 -287.50063133 74.47642708 C-287.51970781 83.85557756 -287.5339252 93.23472012 -287.5422433 102.6138863 C-287.55198024 113.41393617 -287.5781961 124.21377913 -287.61874419 135.01375622 C-287.6490388 143.37237665 -287.66372535 151.73093833 -287.66702431 160.08961254 C-287.66936261 165.07465565 -287.6781603 170.0594784 -287.70348549 175.0444622 C-287.72700079 179.75014535 -287.73090662 184.45546687 -287.72072411 189.16119385 C-287.72023403 190.87424494 -287.72639544 192.58731524 -287.74028015 194.30031013 C-287.89999522 215.2020327 -283.05627257 234.95691612 -272.5390625 253.1328125 C-271.25 255.4375 -271.25 255.4375 -269.9375 258.875 C-266.12028602 266.93356284 -260.42267519 273.82978445 -253.515625 279.41796875 C-251.09871256 281.5723545 -249.01471145 283.88132031 -246.87109375 286.30200195 C-239.47260037 294.62196431 -231.39997499 301.13486426 -222.25 307.4375 C-221.61707031 307.88125977 -220.98414063 308.32501953 -220.33203125 308.78222656 C-201.87372767 321.63643694 -181.3338548 331.73813365 -160.984375 341.21484375 C-155.70267186 343.67539188 -150.49860228 346.28175814 -145.30761719 348.92749023 C-139.34511257 351.94981328 -135.07170989 354.10895626 -128.25 353.4375 C-125.2261549 352.38640437 -122.41441264 351.00973925 -119.5625 349.5625 C-118.81677734 349.19769531 -118.07105469 348.83289063 -117.30273438 348.45703125 C-114.6233192 347.14242077 -111.96027635 345.79663348 -109.296875 344.44995117 C-107.09303249 343.35985875 -104.86897588 342.32360614 -102.63671875 341.29296875 C-89.40883276 335.12403107 -76.6254645 328.41628893 -64.02246094 321.05615234 C-62.19316768 319.98815179 -60.3605374 318.92584389 -58.52441406 317.86962891 C-44.4759047 309.78801473 -31.17605502 301.56574141 -20.5859375 289.0859375 C-18.32813989 286.52609339 -15.96377442 284.18223781 -13.50488281 281.8203125 C5.8239595 263.17182759 19.86162228 237.20916822 21.91430664 210.1730957 C21.99380334 209.1620065 22.07330004 208.1509173 22.15520573 207.10918903 C23.23487958 191.56277784 23.09910679 175.95646332 23.11744571 160.38068175 C23.12112948 157.64140203 23.12738808 154.90213958 23.1344471 152.16286659 C23.1587473 142.58911992 23.17195973 133.01542631 23.17553711 123.44165039 C23.17920111 114.53537411 23.20934825 105.62943624 23.25094169 96.72326392 C23.28556249 89.03955765 23.30108378 81.35596474 23.30178314 73.67218095 C23.30257599 69.09759112 23.31132614 64.52335162 23.33978081 59.948843 C23.36583435 55.66796879 23.36823896 51.38773986 23.35212517 47.10682297 C23.350303 45.5358051 23.35707035 43.96475091 23.37294388 42.39381218 C23.39325623 40.25400969 23.38294709 38.11650047 23.36473083 35.97673035 C23.36674216 34.77915195 23.36875349 33.58157354 23.37082577 32.34770489 C23.03763978 29.25424552 23.03763978 29.25424552 20.38807774 27.60249805 C17.56380614 26.35527517 14.74797737 25.19320431 11.84765625 24.1328125 C10.71593994 23.71644531 9.58422363 23.30007812 8.41821289 22.87109375 C7.22832764 22.43925781 6.03844238 22.00742188 4.8125 21.5625 C3.60005615 21.11777344 2.3876123 20.67304687 1.13842773 20.21484375 C-6.13845368 17.55077175 -13.42589229 14.91790523 -20.74609375 12.375 C-23.25 11.4375 -23.25 11.4375 -25.3359375 10.37109375 C-27.38533579 9.37148928 -29.20210676 8.92753423 -31.4375 8.5 C-34.63555984 7.83526416 -37.66567458 7.01242252 -40.75 5.9375 C-48.52281672 3.28888608 -56.18298243 2.19521788 -64.32836914 1.32788086 C-70.57980238 0.6158802 -76.66003048 -0.59119683 -82.77490234 -2.06591797 C-99.03132509 -5.8055203 -115.59576385 -5.92888584 -132.1875 -5.875 C-133.79951294 -5.87376129 -133.79951294 -5.87376129 -135.4440918 -5.87249756 C-154.16354681 -5.83941078 -172.68720872 -5.30990463 -190.99951172 -1.05322266 Z " fill="#104B74" transform="translate(383.25,89.5625)"/>
<path d="M0 0 C17.263125 -0.0309375 17.263125 -0.0309375 34.875 -0.0625 C40.32942627 -0.07615601 40.32942627 -0.07615601 45.89404297 -0.09008789 C50.32836914 -0.09460449 50.32836914 -0.09460449 52.40310669 -0.09544373 C53.85468858 -0.09698108 55.30626918 -0.10050177 56.75784302 -0.10557556 C58.9543073 -0.1128704 61.15069343 -0.11390683 63.34716797 -0.11352539 C64.58626923 -0.115746 65.82537048 -0.11796661 67.10202026 -0.12025452 C70 0 70 0 72 1 C72 24.1 72 47.2 72 71 C48.24 71 24.48 71 0 71 C0 47.57 0 24.14 0 0 Z " fill="#256D9D" transform="translate(303,167)"/>
<path d="M0 0 C11.22 0 22.44 0 34 0 C34 4.95 34 9.9 34 15 C38.62 15 43.24 15 48 15 C48 20.28 48 25.56 48 31 C52.29 31 56.58 31 61 31 C61 34.96 61 38.92 61 43 C56.71 43 52.42 43 48 43 C48 48.28 48 53.56 48 59 C52.62 59 57.24 59 62 59 C62.02291161 63.53904366 62.04283781 68.07788802 62.05493164 72.61694336 C62.0599714 74.16219766 62.0668032 75.70744716 62.07543945 77.25268555 C62.08752076 79.46925029 62.09323173 81.68575218 62.09765625 83.90234375 C62.10281754 84.5971434 62.10797882 85.29194305 62.11329651 86.00779724 C62.11349277 87.6722933 62.06189129 89.33665499 62 91 C61 92 61 92 58.05859375 92.09765625 C54.70572917 92.06510417 51.35286458 92.03255208 48 92 C48 96.95 48 101.9 48 107 C43.38 107 38.76 107 34 107 C34.33 101.72 34.66 96.44 35 91 C39.62 91 44.24 91 49 91 C48.67 86.38 48.34 81.76 48 77 C38.43 77 28.86 77 19 77 C19 81.62 19 86.24 19 91 C18 92 18 92 16.23413086 92.11352539 C15.48526611 92.10828857 14.73640137 92.10305176 13.96484375 92.09765625 C13.15595703 92.09443359 12.34707031 92.09121094 11.51367188 92.08789062 C10.66353516 92.07951172 9.81339844 92.07113281 8.9375 92.0625 C8.08349609 92.05798828 7.22949219 92.05347656 6.34960938 92.04882812 C4.23304337 92.03700373 2.11651315 92.01906769 0 92 C0 97.28 0 102.56 0 108 C-10.05859375 108.09765625 -10.05859375 108.09765625 -13 108 C-14 107 -14 107 -14.11352539 103.94897461 C-14.11327443 102.60008731 -14.10771815 101.25119355 -14.09765625 99.90234375 C-14.09515869 98.60546631 -14.09266113 97.30858887 -14.09008789 95.97241211 C-14.08098389 94.31089111 -14.07187988 92.64937012 -14.0625 90.9375 C-14.041875 85.678125 -14.02125 80.41875 -14 75 C-3.11 75 7.78 75 19 75 C19 69.72 19 64.44 19 59 C23.95 59 28.9 59 34 59 C34 49.1 34 39.2 34 29 C29.05 29 24.1 29 19 29 C19 33.95 19 38.9 19 44 C13.06 44 7.12 44 1 44 C1.0395679 48.89153471 1.0395679 48.89153471 1.09008789 53.78295898 C1.09724913 55.52221717 1.05024702 57.26145304 1 59 C-0.80746134 60.80746134 -3.50445781 60.17303483 -5.9375 60.1875 C-7.01902344 60.20167969 -8.10054688 60.21585937 -9.21484375 60.23046875 C-12 60 -12 60 -14 58 C-14.28034724 53.32380812 -14.08523334 48.68783389 -14 44 C-9.38 44 -4.76 44 0 44 C0 39.05 0 34.1 0 29 C-4.29 29 -8.58 29 -13 29 C-13 24.05 -13 19.1 -13 14 C-8.71 14 -4.42 14 0 14 C0 9.38 0 4.76 0 0 Z " fill="#175A87" transform="translate(314,252)"/>
<path d="M0 0 C15.18 0 30.36 0 46 0 C46.020625 7.239375 46.04125 14.47875 46.0625 21.9375 C46.071604 24.22550537 46.08070801 26.51351074 46.09008789 28.87084961 C46.09300695 30.67301372 46.09555553 32.4751785 46.09765625 34.27734375 C46.10277222 35.22226685 46.10788818 36.16718994 46.11315918 37.14074707 C46.11334045 38.48054626 46.11334045 38.48054626 46.11352539 39.84741211 C46.115746 40.62684677 46.11796661 41.40628143 46.12025452 42.20933533 C46 44 46 44 45 45 C43.58774954 45.0928726 42.17091066 45.11746772 40.75561523 45.11352539 C39.84211304 45.11340454 38.92861084 45.11328369 37.98742676 45.11315918 C37.02091187 45.10804321 36.05439697 45.10292725 35.05859375 45.09765625 C34.17498169 45.09664917 33.29136963 45.09564209 32.38098145 45.09460449 C29.06647451 45.08935531 25.75198601 45.07539417 22.4375 45.0625 C15.033125 45.041875 7.62875 45.02125 0 45 C0 30.15 0 15.3 0 0 Z " fill="#010304" transform="translate(316,181)"/>
<path d="M0 0 C31.11084441 3.33535855 62.82012562 12.86378513 92 24 C93.02577148 24.38816895 93.02577148 24.38816895 94.07226562 24.78417969 C103.16783082 28.27804577 111.08945446 31.40504111 115.375 40.625 C117.47604967 45.83194919 118.12674875 50.16703449 118.14044189 55.81134033 C118.14489858 56.83849769 118.14489858 56.83849769 118.1494453 57.88640571 C118.15811626 60.18111881 118.1596393 62.47577963 118.16113281 64.77050781 C118.16576283 66.41686616 118.17078774 68.06322343 118.17617798 69.70957947 C118.18930301 74.18808356 118.19574939 78.66657264 118.20018864 83.14509296 C118.20312463 85.95276654 118.20723085 88.76043607 118.21169281 91.5681076 C118.22537994 100.37915472 118.23503558 109.19019254 118.2388947 118.00124955 C118.24335168 128.11915926 118.26078361 138.23693226 118.2898953 148.35480046 C118.31167866 156.20317705 118.32160808 164.05151571 118.32293582 171.89992213 C118.32397382 176.57208055 118.32966085 181.24411073 118.34775543 185.91623688 C118.53519243 237.2569559 110.67896802 279.71339647 73.60058594 317.42236328 C45.72139912 344.90181801 9.21866476 362.68217874 -25.875 379.0625 C-27.02145996 379.59891113 -28.16791992 380.13532227 -29.34912109 380.68798828 C-54.14174471 392.11200471 -54.14174471 392.11200471 -64.48828125 388.92578125 C-65.76955076 388.40377003 -67.04399067 387.86479644 -68.3125 387.3125 C-69.02398193 387.01142334 -69.73546387 386.71034668 -70.46850586 386.40014648 C-80.87294571 381.88904669 -90.94555468 376.6393671 -101.04785156 371.49804688 C-104.20483163 369.89605963 -107.37303168 368.31846838 -110.54663086 366.74975586 C-113.05584881 365.50600018 -115.55547887 364.24369165 -118.05419922 362.97900391 C-119.40705708 362.29833138 -120.76310597 361.62397931 -122.12158203 360.95458984 C-132.34819701 355.90521272 -141.99615504 350.24984312 -151.5 343.9375 C-152.47839844 343.28910156 -153.45679688 342.64070313 -154.46484375 341.97265625 C-188.31072264 319.10257797 -218.31572666 286.17258899 -227.07481384 245.2016449 C-230.82952185 225.70028802 -230.60809476 206.22548527 -230.57023358 186.44723058 C-230.5650558 182.50765102 -230.57246843 178.56813231 -230.57970566 174.62855905 C-230.59656851 165.33866073 -230.59326841 156.0489273 -230.57641602 146.7590332 C-230.55941192 137.2069966 -230.57547326 127.65541428 -230.6076389 118.10342699 C-230.63436068 109.85227005 -230.64160664 101.60125434 -230.63312382 93.3500585 C-230.628214 88.44274757 -230.63030806 83.5357112 -230.65091133 78.62843513 C-230.6693161 74.02739364 -230.66325165 69.42700871 -230.63871193 64.82600212 C-230.63372398 63.14506224 -230.63714111 61.46407176 -230.64986038 59.78317261 C-230.71289407 50.7343552 -230.6679077 42.57868343 -225 35 C-219.59238075 29.62911261 -212.95752407 26.95767531 -205.9375 24.25 C-204.86983398 23.83097412 -203.80216797 23.41194824 -202.70214844 22.98022461 C-193.81088131 19.55781263 -184.81079455 16.4989666 -175.75 13.5625 C-174.78645096 13.24871399 -174.78645096 13.24871399 -173.80343628 12.92858887 C-154.98084116 6.83237267 -154.98084116 6.83237267 -148 6 C-147.01 6.99 -147.01 6.99 -146 8 C-147.09163452 8.26393555 -147.09163452 8.26393555 -148.20532227 8.53320312 C-165.64882289 12.81340541 -182.68717188 18.32931727 -199.5 24.625 C-200.6974585 25.06779297 -201.89491699 25.51058594 -203.12866211 25.96679688 C-208.3946928 27.97629608 -213.59185786 30.10578534 -218.59375 32.7109375 C-219.35365234 33.1032959 -220.11355469 33.4956543 -220.89648438 33.89990234 C-227.51696269 40.50962315 -227.51015112 49.7073426 -227.51989746 58.50061035 C-227.50893364 60.14062764 -227.49756778 61.78064229 -227.48583984 63.4206543 C-227.48798896 65.17117089 -227.49187148 66.92168608 -227.49734497 68.67219543 C-227.50699632 73.40400657 -227.49178462 78.13543734 -227.47143888 82.86720252 C-227.45378485 87.8382874 -227.45739469 92.80936196 -227.4581604 97.7804718 C-227.45629015 106.13195091 -227.43896915 114.48328428 -227.41162109 122.8347168 C-227.38022487 132.4572151 -227.36962338 142.07955366 -227.3710922 151.7020995 C-227.37244937 161.98561878 -227.35852696 172.26907737 -227.34019899 182.55257821 C-227.33595937 185.49653309 -227.33451975 188.44047801 -227.33372116 191.38443565 C-227.33169343 196.0343682 -227.31933247 200.68416967 -227.29938889 205.33405876 C-227.29360827 207.0290064 -227.29107383 208.72396914 -227.29224396 210.41892624 C-227.30998716 251.81218113 -212.51600528 285.38722528 -184 315 C-183.4225 315.6290625 -182.845 316.258125 -182.25 316.90625 C-165.4455651 334.71895099 -141.84863431 348.56609001 -119.9765625 359.0625 C-116.44301318 360.76000657 -112.99479293 362.59108095 -109.54516602 364.45214844 C-101.25058414 368.91662927 -92.82392305 373.07504175 -84.29406738 377.06826782 C-82.48427476 377.91560037 -80.67715721 378.76863913 -78.87011719 379.62182617 C-63.11913737 387.01474671 -63.11913737 387.01474671 -46.37768555 385.03930664 C-38.41149186 381.65317136 -30.52879277 378.10322225 -22.6875 374.4375 C-22.03725861 374.13386536 -21.38701721 373.83023071 -20.71707153 373.51739502 C-8.2869758 367.70072944 3.94706025 361.56718087 16 355 C16.90572754 354.50790039 17.81145508 354.01580078 18.74462891 353.50878906 C36.2034361 343.95755694 52.05541653 333.13122397 67 320 C67.76957031 319.35289062 68.53914063 318.70578125 69.33203125 318.0390625 C74.04472244 314.05625274 78.10137492 309.77921802 82 305 C82.76183594 304.07574219 83.52367187 303.15148437 84.30859375 302.19921875 C107.5007283 273.46113898 115.13749215 241.35116085 115.16113281 205.02319336 C115.16577176 203.34471022 115.17079783 201.66622812 115.17617798 199.98774719 C115.18919215 195.46307049 115.19572413 190.93840854 115.20018864 186.41371608 C115.20313457 183.5806393 115.20724192 180.74756644 115.21169281 177.91449165 C115.22533289 169.03141741 115.23501903 160.14835225 115.2388947 151.26526827 C115.24338028 141.04429894 115.26096603 130.82346301 115.2898953 120.60253423 C115.31154786 112.67521932 115.32160073 104.74794187 115.32293582 96.82059771 C115.3239804 92.09699475 115.32981529 87.3735178 115.34775543 82.64994621 C115.36430032 78.2084682 115.36636067 73.76721016 115.35761642 69.3257122 C115.35684973 67.70324614 115.3611398 66.08076789 115.37107468 64.45833206 C115.42801995 54.57353168 115.27898382 45.03333022 110.4375 36.125 C99.76170163 26.81789373 83.22661371 23.45227904 70 19 C68.81792969 18.60200195 67.63585937 18.20400391 66.41796875 17.79394531 C44.65357024 10.59765226 22.50503049 6.16575163 0 2 C0 1.34 0 0.68 0 0 Z " fill="#162643" transform="translate(307,71)"/>
<path d="M0 0 C0.33 0 0.66 0 1 0 C1.02465504 4.39656173 1.04283842 8.7930872 1.05493164 13.18969727 C1.05997121 14.68644918 1.06680287 16.18319616 1.07543945 17.67993164 C1.08752159 19.82699807 1.09323191 21.97399962 1.09765625 24.12109375 C1.10289307 25.4145874 1.10812988 26.70808105 1.11352539 28.04077148 C1 31 1 31 0 32 C-4.33530918 32.14393457 -8.66157731 32.04212061 -13 32 C-13 36.62 -13 41.24 -13 46 C-3.76 46 5.48 46 15 46 C14.505 46.99 14.505 46.99 14 48 C4.43 48 -5.14 48 -15 48 C-15 52.62 -15 57.24 -15 62 C-16 63 -16 63 -17.76586914 63.11352539 C-18.51473389 63.10828857 -19.26359863 63.10305176 -20.03515625 63.09765625 C-20.84404297 63.09443359 -21.65292969 63.09121094 -22.48632812 63.08789062 C-23.33646484 63.07951172 -24.18660156 63.07113281 -25.0625 63.0625 C-25.91650391 63.05798828 -26.77050781 63.05347656 -27.65039062 63.04882812 C-29.76695663 63.03700373 -31.88348685 63.01906769 -34 63 C-34 68.28 -34 73.56 -34 79 C-44.05859375 79.09765625 -44.05859375 79.09765625 -47 79 C-48 78 -48 78 -48.11352539 74.94897461 C-48.11327443 73.60008731 -48.10771815 72.25119355 -48.09765625 70.90234375 C-48.09515869 69.60546631 -48.09266113 68.30858887 -48.09008789 66.97241211 C-48.08098389 65.31089111 -48.07187988 63.64937012 -48.0625 61.9375 C-48.041875 56.678125 -48.02125 51.41875 -48 46 C-37.11 46 -26.22 46 -15 46 C-15 40.72 -15 35.44 -15 30 C-10.05 30 -5.1 30 0 30 C0 20.1 0 10.2 0 0 Z " fill="#0E4C75" transform="translate(348,281)"/>
<path d="M0 0 C5.94 0 11.88 0 18 0 C18 9.57 18 19.14 18 29 C12.06 29 6.12 29 0 29 C0.0395679 33.89153471 0.0395679 33.89153471 0.09008789 38.78295898 C0.09724913 40.52221717 0.05024702 42.26145304 0 44 C-1.80746134 45.80746134 -4.50445781 45.17303483 -6.9375 45.1875 C-8.01902344 45.20167969 -9.10054688 45.21585937 -10.21484375 45.23046875 C-13 45 -13 45 -15 43 C-15.28034724 38.32380812 -15.08523334 33.68783389 -15 29 C-10.38 29 -5.76 29 -1 29 C-1.020625 26.81375 -1.04125 24.6275 -1.0625 22.375 C-1.09665422 14.86856986 -0.61732375 7.48505042 0 0 Z " fill="#163760" transform="translate(315,267)"/>
<path d="M0 0 C1.36651896 4.09955689 0.05768353 5.41327689 -1.8125 9.25 C-8.69242142 24.36414255 -9.43798135 43.95426505 -4.25 59.734375 C0.2595904 71.51567992 7.25045654 84.72604619 18 92 C20.98704565 92.54549962 20.98704565 92.54549962 24.17578125 92.390625 C25.91118164 92.37128906 25.91118164 92.37128906 27.68164062 92.3515625 C28.87982422 92.31804687 30.07800781 92.28453125 31.3125 92.25 C32.53001953 92.23195313 33.74753906 92.21390625 35.00195312 92.1953125 C38.00210422 92.14825131 41.00064889 92.0825131 44 92 C44.75636067 88.6294255 45.12811063 85.51077678 45.1328125 82.05859375 C45.13410156 81.14529297 45.13539063 80.23199219 45.13671875 79.29101562 C45.13091797 77.87852539 45.13091797 77.87852539 45.125 76.4375 C45.12886719 75.49197266 45.13273437 74.54644531 45.13671875 73.57226562 C45.13542969 72.66025391 45.13414062 71.74824219 45.1328125 70.80859375 C45.13112061 69.56807251 45.13112061 69.56807251 45.12939453 68.30249023 C45.00416136 66.07404858 44.61885376 64.13894789 44 62 C43.42967041 61.97494385 42.85934082 61.9498877 42.27172852 61.92407227 C39.70173843 61.80843451 37.13214473 61.68556376 34.5625 61.5625 C33.66466797 61.52318359 32.76683594 61.48386719 31.84179688 61.44335938 C30.98779297 61.40146484 30.13378906 61.35957031 29.25390625 61.31640625 C28.46314697 61.27974854 27.6723877 61.24309082 26.85766602 61.20532227 C25 61 25 61 24 60 C23.90018786 57.3226862 23.86120125 54.67695825 23.875 52 C23.86919922 50.87464844 23.86919922 50.87464844 23.86328125 49.7265625 C23.87338947 44.12661053 23.87338947 44.12661053 25 43 C32.50612787 41.58374946 39.30631837 42.35885986 47 43 C46.67 33.43 46.34 23.86 46 14 C41.71 14 37.42 14 33 14 C32.34 13.34 31.68 12.68 31 12 C31.375 9.375 31.375 9.375 32 7 C32.33 7 32.66 7 33 7 C33 8.65 33 10.3 33 12 C34.14339844 11.98839844 35.28679687 11.97679687 36.46484375 11.96484375 C37.95572754 11.95546712 39.44661309 11.94636679 40.9375 11.9375 C42.06961914 11.92493164 42.06961914 11.92493164 43.22460938 11.91210938 C45.14994313 11.90347559 47.07535581 11.94775667 49 12 C50.90849948 13.90849948 50.13059633 17.31478774 50.1328125 19.84375 C50.13376923 20.52804077 50.13472595 21.21233154 50.13571167 21.9173584 C50.1363933 23.36661877 50.13454023 24.81588218 50.13037109 26.26513672 C50.12502252 28.49062928 50.1303166 30.71592001 50.13671875 32.94140625 C50.13605797 34.34635461 50.1347768 35.75130285 50.1328125 37.15625 C50.13168457 38.44337891 50.13055664 39.73050781 50.12939453 41.05664062 C50 44 50 44 49 45 C47.29227642 45.08713831 45.58101351 45.10700007 43.87109375 45.09765625 C42.83662109 45.09443359 41.80214844 45.09121094 40.73632812 45.08789062 C39.64771484 45.07951172 38.55910156 45.07113281 37.4375 45.0625 C35.7987793 45.05573242 35.7987793 45.05573242 34.12695312 45.04882812 C31.41794568 45.0369984 28.7089662 45.01906231 26 45 C26 49.62 26 54.24 26 59 C27.50433594 58.98839844 29.00867188 58.97679687 30.55859375 58.96484375 C32.51822793 58.95546751 34.47786345 58.94636713 36.4375 58.9375 C37.92733398 58.92493164 37.92733398 58.92493164 39.44726562 58.91210938 C40.86362305 58.90727539 40.86362305 58.90727539 42.30859375 58.90234375 C43.18314209 58.89710693 44.05769043 58.89187012 44.95874023 58.88647461 C47 59 47 59 48 60 C48.08851529 62.59359322 48.11525945 65.16039691 48.09765625 67.75390625 C48.0962413 68.52935287 48.09482635 69.3047995 48.09336853 70.10374451 C48.08775345 72.59003494 48.07519846 75.0762366 48.0625 77.5625 C48.05748694 79.24413933 48.0529237 80.92578006 48.04882812 82.60742188 C48.03777913 86.73831566 48.02050445 90.86914276 48 95 C43.67677539 95.12400035 39.35450398 95.21452256 35.0300293 95.2746582 C33.56044475 95.29973644 32.09098413 95.33380856 30.62182617 95.37719727 C28.50408319 95.43815499 26.38799424 95.46627316 24.26953125 95.48828125 C22.99698486 95.51446533 21.72443848 95.54064941 20.41333008 95.56762695 C16.11288079 94.85247463 14.75079649 93.28973058 12 90 C11.36578125 89.36320312 10.7315625 88.72640625 10.078125 88.0703125 C-4.42968148 72.63251842 -10.35628949 54.96151251 -10.1484375 33.84375 C-9.66724674 21.38344178 -5.77677268 10.94546403 0 0 Z " fill="#0F2747" transform="translate(237,284)"/>
<path d="M0 0 C-1.09163452 0.26393555 -1.09163452 0.26393555 -2.20532227 0.53320312 C-19.64882289 4.81340541 -36.68717188 10.32931727 -53.5 16.625 C-54.6974585 17.06779297 -55.89491699 17.51058594 -57.12866211 17.96679688 C-62.3946928 19.97629608 -67.59185786 22.10578534 -72.59375 24.7109375 C-73.35365234 25.1032959 -74.11355469 25.4956543 -74.89648438 25.89990234 C-81.51696269 32.50962315 -81.51015112 41.7073426 -81.51989746 50.50061035 C-81.50893364 52.14062764 -81.49756778 53.78064229 -81.48583984 55.4206543 C-81.48798896 57.17117089 -81.49187148 58.92168608 -81.49734497 60.67219543 C-81.50699632 65.40400657 -81.49178462 70.13543734 -81.47143888 74.86720252 C-81.45378485 79.8382874 -81.45739469 84.80936196 -81.4581604 89.7804718 C-81.45629015 98.13195091 -81.43896915 106.48328428 -81.41162109 114.8347168 C-81.38022487 124.4572151 -81.36962338 134.07955366 -81.3710922 143.7020995 C-81.37244937 153.98561878 -81.35852696 164.26907737 -81.34019899 174.55257821 C-81.33595937 177.49653309 -81.33451975 180.44047801 -81.33372116 183.38443565 C-81.33169343 188.0343682 -81.31933247 192.68416967 -81.29938889 197.33405876 C-81.29360827 199.0290064 -81.29107383 200.72396914 -81.29224396 202.41892624 C-81.29669556 212.80411286 -80.61836524 222.73488161 -79 233 C-78.66405576 235.33295886 -78.32999789 237.66619261 -78 240 C-78.66 240.33 -79.32 240.66 -80 241 C-80.48229332 238.50056796 -80.96089426 236.00051757 -81.4375 233.5 C-81.57220703 232.80390625 -81.70691406 232.1078125 -81.84570312 231.390625 C-81.97783203 230.69453125 -82.10996094 229.9984375 -82.24609375 229.28125 C-82.36654053 228.65283203 -82.4869873 228.02441406 -82.61108398 227.37695312 C-83.6058056 221.2974744 -84.12761928 215.43610757 -84.15390015 209.27175903 C-84.1582824 208.53693987 -84.16266465 207.8021207 -84.1671797 207.04503429 C-84.18043482 204.60570361 -84.18671614 202.16640892 -84.19287109 199.72705078 C-84.20078219 197.96871788 -84.20905174 196.21038656 -84.21765137 194.45205688 C-84.24374167 188.69982425 -84.25915987 182.94758479 -84.2734375 177.1953125 C-84.27880138 175.20941031 -84.28417889 173.22350816 -84.28956985 171.23760605 C-84.31117404 162.97634828 -84.32991067 154.71509237 -84.34119225 146.45381355 C-84.35743727 134.63917604 -84.39065685 122.82486695 -84.44759309 111.01035321 C-84.48632954 102.68738687 -84.50582897 94.36450829 -84.51111281 86.0414542 C-84.51475938 81.07683454 -84.52670821 76.11256624 -84.55921555 71.14804459 C-84.58936373 66.47753085 -84.59558402 61.80757997 -84.58383179 57.13698959 C-84.58361166 55.42862597 -84.59186612 53.72023566 -84.60948563 52.01196289 C-84.69833402 42.8977953 -84.73868164 34.62617118 -79 27 C-73.5898953 21.63027018 -66.95875381 18.95836685 -59.9375 16.25 C-58.87055908 15.83097412 -57.80361816 15.41194824 -56.7043457 14.98022461 C-47.79407271 11.54877678 -38.77134313 8.49540249 -29.6875 5.5625 C-29.04086395 5.35330933 -28.39422791 5.14411865 -27.72799683 4.92858887 C-21.28008191 2.85381302 -14.80306551 0.87795859 -8.26953125 -0.91015625 C-6.84991089 -1.30086304 -6.84991089 -1.30086304 -5.40161133 -1.69946289 C-3 -2 -3 -2 0 0 Z " fill="#183054" transform="translate(161,79)"/>
<path d="M0 0 C7.26 0 14.52 0 22 0 C22 6.93 22 13.86 22 21 C14.74 21 7.48 21 0 21 C0 14.07 0 7.14 0 0 Z " fill="#2A76A6" transform="translate(328,192)"/>
<path d="M0 0 C0.33 0 0.66 0 1 0 C1.02465504 4.39656173 1.04283842 8.7930872 1.05493164 13.18969727 C1.05997121 14.68644918 1.06680287 16.18319616 1.07543945 17.67993164 C1.08752159 19.82699807 1.09323191 21.97399962 1.09765625 24.12109375 C1.10289307 25.4145874 1.10812988 26.70808105 1.11352539 28.04077148 C1 31 1 31 0 32 C-4.33530918 32.14393457 -8.66157731 32.04212061 -13 32 C-13 36.62 -13 41.24 -13 46 C-3.76 46 5.48 46 15 46 C14.505 46.99 14.505 46.99 14 48 C4.43 48 -5.14 48 -15 48 C-15 52.62 -15 57.24 -15 62 C-16 63 -16 63 -17.76586914 63.11352539 C-18.51473389 63.10828857 -19.26359863 63.10305176 -20.03515625 63.09765625 C-20.84404297 63.09443359 -21.65292969 63.09121094 -22.48632812 63.08789062 C-23.33646484 63.07951172 -24.18660156 63.07113281 -25.0625 63.0625 C-25.91650391 63.05798828 -26.77050781 63.05347656 -27.65039062 63.04882812 C-29.76695663 63.03700373 -31.88348685 63.01906769 -34 63 C-34 68.28 -34 73.56 -34 79 C-44.05859375 79.09765625 -44.05859375 79.09765625 -47 79 C-48 78 -48 78 -48.11352539 74.94897461 C-48.11327443 73.60008731 -48.10771815 72.25119355 -48.09765625 70.90234375 C-48.09515869 69.60546631 -48.09266113 68.30858887 -48.09008789 66.97241211 C-48.08098389 65.31089111 -48.07187988 63.64937012 -48.0625 61.9375 C-48.041875 56.678125 -48.02125 51.41875 -48 46 C-37.11 46 -26.22 46 -15 46 C-15 40.72 -15 35.44 -15 30 C-10.05 30 -5.1 30 0 30 C0 20.1 0 10.2 0 0 Z M-46 48 C-46 57.24 -46 66.48 -46 76 C-42.7 76 -39.4 76 -36 76 C-35.93941406 75.07316406 -35.87882812 74.14632812 -35.81640625 73.19140625 C-35.73261719 71.99386719 -35.64882813 70.79632813 -35.5625 69.5625 C-35.48128906 68.36753906 -35.40007812 67.17257812 -35.31640625 65.94140625 C-35 63 -35 63 -34 62 C-31.14122091 61.76298761 -28.30116703 61.57780818 -25.4375 61.4375 C-24.63119141 61.39431641 -23.82488281 61.35113281 -22.99414062 61.30664062 C-20.99631195 61.20024738 -18.9981793 61.09959112 -17 61 C-17 56.71 -17 52.42 -17 48 C-26.57 48 -36.14 48 -46 48 Z " fill="#0B2646" transform="translate(348,281)"/>
<path d="M0 0 C0.02465392 4.53897705 0.04283789 9.07791543 0.05493164 13.61694336 C0.0599714 15.16219766 0.0668032 16.70744716 0.07543945 18.25268555 C0.08752076 20.46925029 0.09323173 22.68575218 0.09765625 24.90234375 C0.10281754 25.5971434 0.10797882 26.29194305 0.11329651 27.00779724 C0.11349277 28.6722933 0.06189129 30.33665499 0 32 C-1 33 -1 33 -3.94140625 33.09765625 C-7.29427083 33.06510417 -10.64713542 33.03255208 -14 33 C-14 37.95 -14 42.9 -14 48 C-18.62 48 -23.24 48 -28 48 C-27.67 42.72 -27.34 37.44 -27 32 C-22.38 32 -17.76 32 -13 32 C-13 31.34 -13 30.68 -13 30 C-9.04 30 -5.08 30 -1 30 C-1 20.76 -1 11.52 -1 2 C-5.29 2 -9.58 2 -14 2 C-14 1.67 -14 1.34 -14 1 C-11.85420251 0.83287252 -9.70836101 0.66631 -7.5625 0.5 C-5.77005859 0.36078125 -5.77005859 0.36078125 -3.94140625 0.21875 C-1 0 -1 0 0 0 Z " fill="#142A49" transform="translate(376,311)"/>
<path d="M0 0 C11.22 0 22.44 0 34 0 C33.67 4.95 33.34 9.9 33 15 C32.67 15 32.34 15 32 15 C32 10.38 32 5.76 32 1 C21.77 1 11.54 1 1 1 C1 10.24 1 19.48 1 29 C-3.62 29 -8.24 29 -13 29 C-13 24.05 -13 19.1 -13 14 C-8.71 14 -4.42 14 0 14 C0 9.38 0 4.76 0 0 Z " fill="#183257" transform="translate(314,252)"/>
<path d="M0 0 C5.94 0 11.88 0 18 0 C18 4.62 18 9.24 18 14 C12.06 14 6.12 14 0 14 C0 9.38 0 4.76 0 0 Z " fill="#000000" transform="translate(315,267)"/>
<path d="M0 0 C0.33 0.66 0.66 1.32 1 2 C0.15511658 3.82661415 -0.77851778 5.61245368 -1.75 7.375 C-9.04147925 21.75447535 -10.88936425 39.46638927 -6.375 55.125 C-5.63842305 57.10471209 -4.84692417 59.06492248 -4 61 C-3.55269531 62.03382813 -3.10539063 63.06765625 -2.64453125 64.1328125 C0.71036409 71.31030977 4.80570258 78.17042409 10.70703125 83.55859375 C12 85 12 85 12 88 C6.31531835 86.28137532 1.01576119 83.8358325 -4.375 81.375 C-5.30183594 80.95476562 -6.22867188 80.53453125 -7.18359375 80.1015625 C-9.45694599 79.07035118 -11.72902406 78.03643137 -14 77 C-13.505 76.01 -13.505 76.01 -13 75 C-12.27554688 75.33773437 -11.55109375 75.67546875 -10.8046875 76.0234375 C-5.93300543 78.27090683 -1.15481852 80.46748639 4 82 C3.63648438 81.34515625 3.27296875 80.6903125 2.8984375 80.015625 C1.24812347 77.0196703 -0.37684521 74.0107497 -2 71 C-2.53753906 70.02804687 -3.07507813 69.05609375 -3.62890625 68.0546875 C-12.30976637 51.73728127 -13.5740732 33.39280347 -8.35546875 15.7265625 C-6.27934275 10.01871176 -3.39821723 5.04005253 0 0 Z " fill="#0F325A" transform="translate(212,293)"/>
<path d="M0 0 C4.62 0 9.24 0 14 0 C14 4.95 14 9.9 14 15 C9.38 15 4.76 15 0 15 C0 10.05 0 5.1 0 0 Z " fill="#1E5D8A" transform="translate(362,252)"/>
<path d="M0 0 C0.33 0 0.66 0 1 0 C1.02465504 4.39656173 1.04283842 8.7930872 1.05493164 13.18969727 C1.05997121 14.68644918 1.06680287 16.18319616 1.07543945 17.67993164 C1.08752159 19.82699807 1.09323191 21.97399962 1.09765625 24.12109375 C1.10289307 25.4145874 1.10812988 26.70808105 1.11352539 28.04077148 C1 31 1 31 0 32 C-4.33530918 32.14393457 -8.66157731 32.04212061 -13 32 C-13 36.62 -13 41.24 -13 46 C-3.76 46 5.48 46 15 46 C14.505 46.99 14.505 46.99 14 48 C4.43 48 -5.14 48 -15 48 C-15 52.62 -15 57.24 -15 62 C-15.33 62 -15.66 62 -16 62 C-16 57.05 -16 52.1 -16 47 C-26.23 47 -36.46 47 -47 47 C-47 46.67 -47 46.34 -47 46 C-36.44 46 -25.88 46 -15 46 C-15 40.72 -15 35.44 -15 30 C-10.05 30 -5.1 30 0 30 C0 20.1 0 10.2 0 0 Z " fill="#25364B" transform="translate(348,281)"/>
<path d="M0 0 C4.95 0 9.9 0 15 0 C15 4.29 15 8.58 15 13 C10.05 13 5.1 13 0 13 C0 8.71 0 4.42 0 0 Z " fill="#175D8C" transform="translate(316,282)"/>
<path d="M0 0 C0.66 0 1.32 0 2 0 C2.65087044 34.77018398 -14.27353713 64.13700416 -36 90 C-36.99 89.67 -37.98 89.34 -39 89 C-38.56937256 88.59257568 -38.13874512 88.18515137 -37.69506836 87.76538086 C-14.12509849 64.91441865 -1.77800212 32.37190067 0 0 Z " fill="#112748" transform="translate(422,293)"/>
<path d="M0 0 C0.66 0 1.32 0 2 0 C2.42410156 1.02738281 2.84820312 2.05476563 3.28515625 3.11328125 C9.15028302 17.08270084 16.35486022 28.18734014 27 39 C27.68449219 39.70898438 28.36898437 40.41796875 29.07421875 41.1484375 C37.10378422 48.87827459 47.36237759 54.29824904 57.046875 59.69921875 C57.69140625 60.12847656 58.3359375 60.55773437 59 61 C59 61.66 59 62.32 59 63 C35.84437143 54.30088001 15.32626305 34.91320293 4.8984375 12.59765625 C0 1.74320466 0 1.74320466 0 0 Z " fill="#11355C" transform="translate(138,306)"/>
<path d="M0 0 C3.63 0 7.26 0 11 0 C11 3.96 11 7.92 11 12 C7.37 12 3.74 12 0 12 C0 8.04 0 4.08 0 0 Z " fill="#0C4973" transform="translate(349,345)"/>
<path d="M0 0 C3.63 0 7.26 0 11 0 C11 3.96 11 7.92 11 12 C7.37 12 3.74 12 0 12 C0 8.04 0 4.08 0 0 Z " fill="#125784" transform="translate(302,298)"/>
<path d="M0 0 C3.63 0 7.26 0 11 0 C11 3.96 11 7.92 11 12 C7.37 12 3.74 12 0 12 C0 8.04 0 4.08 0 0 Z " fill="#1A6594" transform="translate(302,268)"/>
<path d="M0 0 C7.26 0 14.52 0 22 0 C22 6.93 22 13.86 22 21 C21.34 21 20.68 21 20 21 C20 14.73 20 8.46 20 2 C13.73 2 7.46 2 1 2 C1 8.27 1 14.54 1 21 C0.67 21 0.34 21 0 21 C0 14.07 0 7.14 0 0 Z " fill="#1B5888" transform="translate(328,192)"/>
<path d="M0 0 C4.95 0.33 9.9 0.66 15 1 C15.09765625 11.83984375 15.09765625 11.83984375 15 15 C13.19253866 16.80746134 10.49554219 16.17303483 8.0625 16.1875 C6.98097656 16.20167969 5.89945312 16.21585937 4.78515625 16.23046875 C2 16 2 16 0 14 C-0.28034724 9.32380812 -0.08523334 4.68783389 0 0 Z M2 2 C2 5.96 2 9.92 2 14 C5.63 14 9.26 14 13 14 C13 10.04 13 6.08 13 2 C9.37 2 5.74 2 2 2 Z " fill="#0E2542" transform="translate(300,296)"/>
<path d="M0 0 C0.33 0 0.66 0 1 0 C1.02465504 4.39656173 1.04283842 8.7930872 1.05493164 13.18969727 C1.05997121 14.68644918 1.06680287 16.18319616 1.07543945 17.67993164 C1.08752159 19.82699807 1.09323191 21.97399962 1.09765625 24.12109375 C1.10551147 26.06133423 1.10551147 26.06133423 1.11352539 28.04077148 C1 31 1 31 0 32 C-4.33530918 32.14393457 -8.66157731 32.04212061 -13 32 C-13 36.62 -13 41.24 -13 46 C-13.66 46 -14.32 46 -15 46 C-15 40.72 -15 35.44 -15 30 C-10.05 30 -5.1 30 0 30 C0 20.1 0 10.2 0 0 Z " fill="#0D3462" transform="translate(348,281)"/>
<path d="M0 0 C1.36651896 4.09955689 0.05768353 5.41327689 -1.8125 9.25 C-5.2254313 16.68451339 -6.32717805 23.84749502 -7 32 C-7.10957031 33.19238281 -7.21914062 34.38476562 -7.33203125 35.61328125 C-7.57831677 38.40780099 -7.80198357 41.20171519 -8 44 C-8.66 44 -9.32 44 -10 44 C-10.44006981 27.47293393 -7.71971525 14.62682889 0 0 Z " fill="#0C335E" transform="translate(237,284)"/>
<path d="M0 0 C0.33 0 0.66 0 1 0 C1 1.65 1 3.3 1 5 C5.95 5 10.9 5 16 5 C16 15.23 16 25.46 16 36 C15.67 36 15.34 36 15 36 C14.67 26.43 14.34 16.86 14 7 C9.71 7 5.42 7 1 7 C0.34 6.34 -0.32 5.68 -1 5 C-0.625 2.375 -0.625 2.375 0 0 Z " fill="#0B406F" transform="translate(269,291)"/>
<path d="M0 0 C0.94101562 0.00322266 1.88203125 0.00644531 2.8515625 0.00976562 C3.83640625 0.01814453 4.82125 0.02652344 5.8359375 0.03515625 C6.82851563 0.03966797 7.82109375 0.04417969 8.84375 0.04882812 C11.2995391 0.0606348 13.75520854 0.07710225 16.2109375 0.09765625 C16.2109375 0.42765625 16.2109375 0.75765625 16.2109375 1.09765625 C19.1809375 1.59265625 19.1809375 1.59265625 22.2109375 2.09765625 C22.2109375 2.42765625 22.2109375 2.75765625 22.2109375 3.09765625 C12.9709375 3.09765625 3.7309375 3.09765625 -5.7890625 3.09765625 C-6.1190625 2.43765625 -6.4490625 1.77765625 -6.7890625 1.09765625 C-4.33631109 -0.12871945 -2.7384844 -0.01649689 0 0 Z " fill="#14375B" transform="translate(261.7890625,375.90234375)"/>
<path d="M0 0 C0.66 0.33 1.32 0.66 2 1 C-1.35663037 4.40605408 -4.71976641 7.80549744 -8.08911133 11.19897461 C-9.23448131 12.35440451 -10.37805014 13.51162276 -11.51977539 14.6706543 C-13.16082477 16.33595213 -14.80823594 17.99471918 -16.45703125 19.65234375 C-16.9665181 20.17215317 -17.47600494 20.69196259 -18.00093079 21.2275238 C-20.32982332 23.55714886 -21.82686948 24.94228983 -25 26 C-21.93857603 19.17867183 -15.6247974 14.62984022 -10.06640625 9.84375 C-6.56017716 6.71531875 -3.28207479 3.36063509 0 0 Z " fill="#041E39" transform="translate(249,253)"/>
<path d="M0 0 C4.38693997 0.90215539 7.56242497 3.23320224 11.1875 5.75 C16.64559176 9.47181795 22.11838984 12.97152865 28 16 C28 16.66 28 17.32 28 18 C17.82026551 14.18722672 8.42435752 7.79918619 0 1 C0 0.67 0 0.34 0 0 Z " fill="#12294B" transform="translate(169,351)"/>
<path d="M0 0 C0.66 0.33 1.32 0.66 2 1 C1.67 1.99 1.34 2.98 1 4 C0.85284801 5.62567079 0.75278133 7.25586857 0.68359375 8.88671875 C0.64169922 9.82451172 0.59980469 10.76230469 0.55664062 11.72851562 C0.49766602 13.19321289 0.49766602 13.19321289 0.4375 14.6875 C0.39431641 15.67556641 0.35113281 16.66363281 0.30664062 17.68164062 C0.20058346 20.12095546 0.09852286 22.56037113 0 25 C-2.44350949 22.55649051 -2.25627116 21.88683648 -2.265625 18.53515625 C-2.26949219 17.21161133 -2.26949219 17.21161133 -2.2734375 15.86132812 C-2.26570312 14.93771484 -2.25796875 14.01410156 -2.25 13.0625 C-2.25773438 12.14275391 -2.26546875 11.22300781 -2.2734375 10.27539062 C-2.27085937 9.39173828 -2.26828125 8.50808594 -2.265625 7.59765625 C-2.26336914 6.78820557 -2.26111328 5.97875488 -2.25878906 5.14477539 C-2 3 -2 3 0 0 Z " fill="#237EAF" transform="translate(211,160)"/>
<path d="M0 0 C0.33 0 0.66 0 1 0 C1 5.28 1 10.56 1 16 C5.29 16 9.58 16 14 16 C14 16.33 14 16.66 14 17 C11.68802845 17.19390729 9.3753971 17.37996367 7.0625 17.5625 C5.13083984 17.71912109 5.13083984 17.71912109 3.16015625 17.87890625 C2.11730469 17.91886719 1.07445312 17.95882813 0 18 C-1.82116003 16.17883997 -1.1323508 13.69328236 -1.13671875 11.2734375 C-1.13285156 10.52320313 -1.12898438 9.77296875 -1.125 9 C-1.12886719 8.24976563 -1.13273437 7.49953125 -1.13671875 6.7265625 C-1.12661053 1.12661053 -1.12661053 1.12661053 0 0 Z " fill="#1C4269" transform="translate(361,295)"/>
<path d="M0 0 C0.6290625 0.25394531 1.258125 0.50789063 1.90625 0.76953125 C7.2465702 2.91691904 12.60242819 5.00089933 18 7 C18.33 6.34 18.66 5.68 19 5 C19.99 6.32 20.98 7.64 22 9 C18.58957132 10.18960605 16.91628018 9.85398723 13.671875 8.34765625 C12.87265625 7.98349609 12.0734375 7.61933594 11.25 7.24414062 C10.425 6.85419922 9.6 6.46425781 8.75 6.0625 C7.90953125 5.67642578 7.0690625 5.29035156 6.203125 4.89257812 C4.13039258 3.93865013 2.06324373 2.97423909 0 2 C0 1.34 0 0.68 0 0 Z " fill="#0D2A4F" transform="translate(198,368)"/>
<path d="M0 0 C0.66 0 1.32 0 2 0 C1.54240047 6.5508985 0.7899856 12.6753842 -1 19 C-1.33 19 -1.66 19 -2 19 C-1.85982174 16.02046641 -1.71313658 13.04150696 -1.5625 10.0625 C-1.52318359 9.21236328 -1.48386719 8.36222656 -1.44335938 7.48632812 C-1.40146484 6.67744141 -1.35957031 5.86855469 -1.31640625 5.03515625 C-1.27974854 4.2862915 -1.24309082 3.53742676 -1.20532227 2.76586914 C-1 1 -1 1 0 0 Z " fill="#2378A7" transform="translate(186,176)"/>
<path d="M0 0 C-0.33 0.99 -0.66 1.98 -1 3 C-2.32 3 -3.64 3 -5 3 C-7.63982875 4.29397873 -7.63982875 4.29397873 -10.25 6 C-11.58804688 6.8353125 -11.58804688 6.8353125 -12.953125 7.6875 C-13.96632812 8.3371875 -13.96632812 8.3371875 -15 9 C-15 8.01 -15 7.02 -15 6 C-10.60979614 1.99028048 -6.10187582 -0.93875013 0 0 Z " fill="#2A84B3" transform="translate(251,116)"/>
<path d="M0 0 C0.99 0.33 1.98 0.66 3 1 C-0.63 4.63 -4.26 8.26 -8 12 C-8.33 11.34 -8.66 10.68 -9 10 C-7.8758824 8.70756532 -6.75067408 7.41607925 -5.625 6.125 C-4.99851563 5.40570313 -4.37203125 4.68640625 -3.7265625 3.9453125 C-2.52573166 2.5923402 -1.2791655 1.2791655 0 0 Z " fill="#2C88BB" transform="translate(231,126)"/>
<path d="M0 0 C0.33 0.66 0.66 1.32 1 2 C1.66 2 2.32 2 3 2 C3.1799928 7.21979128 2.97094808 11.07262981 1 16 C0.34 16 -0.32 16 -1 16 C-0.9278125 15.18015625 -0.855625 14.3603125 -0.78125 13.515625 C-0.6884375 12.43796875 -0.595625 11.3603125 -0.5 10.25 C-0.4071875 9.18265625 -0.314375 8.1153125 -0.21875 7.015625 C-0.04947717 4.6820782 0 2.33967818 0 0 Z " fill="#1E81B4" transform="translate(196,201)"/>
<path d="M0 0 C0.66 0.33 1.32 0.66 2 1 C0.40517782 2.67561054 -1.20116844 4.34025934 -2.8125 6 C-3.70582031 6.928125 -4.59914062 7.85625 -5.51953125 8.8125 C-8 11 -8 11 -11 11 C-8.67618841 6.35237681 -4.04426297 3.11986001 0 0 Z " fill="#125B8C" transform="translate(186,249)"/>
<path d="M0 0 C2.5 1.8125 2.5 1.8125 5 4 C5 4.99 5 5.98 5 7 C3.02 6.34 1.04 5.68 -1 5 C-0.67 3.35 -0.34 1.7 0 0 Z " fill="#1A2435" transform="translate(219,374)"/>
<path d="M0 0 C0.66 0.33 1.32 0.66 2 1 C0.90033225 2.29549899 -0.20491801 3.58626071 -1.3125 4.875 C-1.92738281 5.59429687 -2.54226562 6.31359375 -3.17578125 7.0546875 C-5 9 -5 9 -8 11 C-6.63629701 8.00779732 -5.05091917 5.70973471 -2.875 3.25 C-2.33617187 2.63640625 -1.79734375 2.0228125 -1.2421875 1.390625 C-0.62730469 0.70226562 -0.62730469 0.70226562 0 0 Z " fill="#237DAF" transform="translate(175,211)"/>
<path d="M0 0 C2.38672669 2.96283313 4.7353371 5.94270509 7 9 C6.67 9.66 6.34 10.32 6 11 C0.42857143 4.85714286 0.42857143 4.85714286 0 0 Z " fill="#0E203F" transform="translate(212,364)"/>
<path d="M0 0 C1.22589844 0.01353516 1.22589844 0.01353516 2.4765625 0.02734375 C3.41628906 0.04474609 3.41628906 0.04474609 4.375 0.0625 C4.375 0.3925 4.375 0.7225 4.375 1.0625 C1.075 1.7225 -2.225 2.3825 -5.625 3.0625 C-5.955 2.4025 -6.285 1.7425 -6.625 1.0625 C-4.21954362 -0.14022819 -2.67503047 -0.03821472 0 0 Z " fill="#0A3B64" transform="translate(261.625,375.9375)"/>
</svg>
